<svg width="248pt" height="188pt" viewBox="0.00 0.00 247.79 188.00" xmlns="http://www.w3.org/2000/svg" xmlns:xlink="http://www.w3.org/1999/xlink">
<g id="graph1" class="graph" transform="scale(1 1) rotate(0) translate(4 184)">
<title>workflow</title>
<polygon fill="white" stroke="white" points="-4,5 -4,-184 244.793,-184 244.793,5 -4,5"></polygon>
<!-- signIn -->
<g id="node1" class="node"><title>signIn</title>
<ellipse fill="none" stroke="black" cx="178" cy="-162" rx="35.2644" ry="18"></ellipse>
<text text-anchor="middle" x="178" y="-157.8" font-family="Times,serif" font-size="14.00">signIn</text>
</g>
<!-- adminView -->
<g id="node3" class="node"><title>adminView</title>
<ellipse fill="none" stroke="black" cx="56" cy="-90" rx="56.1336" ry="18"></ellipse>
<text text-anchor="middle" x="56" y="-85.8" font-family="Times,serif" font-size="14.00">adminView</text>
</g>
<!-- signIn&#45;&gt;adminView -->
<g id="edge2" class="edge"><title>signIn-&gt;adminView</title>
<path fill="none" stroke="black" d="M155.339,-147.998C137.331,-137.665 111.826,-123.032 91.1693,-111.179"></path>
<polygon fill="black" stroke="black" points="92.7727,-108.064 82.3572,-106.123 89.289,-114.135 92.7727,-108.064"></polygon>
</g>
<!-- userView -->
<g id="node5" class="node"><title>userView</title>
<ellipse fill="none" stroke="black" cx="178" cy="-90" rx="48.0528" ry="18"></ellipse>
<text text-anchor="middle" x="178" y="-85.8" font-family="Times,serif" font-size="14.00">userView</text>
</g>
<!-- signIn&#45;&gt;userView -->
<g id="edge4" class="edge"><title>signIn-&gt;userView</title>
<path fill="none" stroke="black" d="M178,-143.697C178,-135.983 178,-126.712 178,-118.112"></path>
<polygon fill="black" stroke="black" points="181.5,-118.104 178,-108.104 174.5,-118.104 181.5,-118.104"></polygon>
</g>
<!-- signOut -->
<g id="node7" class="node"><title>signOut</title>
<ellipse fill="none" stroke="black" cx="178" cy="-18" rx="41.4237" ry="18"></ellipse>
<text text-anchor="middle" x="178" y="-13.8" font-family="Times,serif" font-size="14.00">signOut</text>
</g>
<!-- adminView&#45;&gt;signOut -->
<g id="edge6" class="edge"><title>adminView-&gt;signOut</title>
<path fill="none" stroke="black" d="M82.1721,-73.9832C100.63,-63.3928 125.485,-49.1314 145.257,-37.787"></path>
<polygon fill="black" stroke="black" points="147.01,-40.8162 153.942,-32.8036 143.527,-34.7446 147.01,-40.8162"></polygon>
</g>
<!-- userView&#45;&gt;signOut -->
<g id="edge8" class="edge"><title>userView-&gt;signOut</title>
<path fill="none" stroke="black" d="M178,-71.6966C178,-63.9827 178,-54.7125 178,-46.1124"></path>
<polygon fill="black" stroke="black" points="181.5,-46.1043 178,-36.1043 174.5,-46.1044 181.5,-46.1043"></polygon>
</g>
<!-- signOut&#45;&gt;signIn -->
<g id="edge10" class="edge"><title>signOut-&gt;signIn</title>
<path fill="none" stroke="black" d="M200.733,-33.1751C213.395,-42.4798 227.984,-55.8955 235,-72 241.391,-86.6684 241.391,-93.3316 235,-108 229.237,-121.228 218.364,-132.642 207.648,-141.454"></path>
<polygon fill="black" stroke="black" points="205.359,-138.799 199.57,-147.672 209.629,-144.346 205.359,-138.799"></polygon>
</g>
</g>
</svg>